<?xml version="1.0" standalone="no"?><!DOCTYPE svg PUBLIC "-//W3C//DTD SVG 1.1//EN" "http://www.w3.org/Graphics/SVG/1.1/DTD/svg11.dtd"><svg t="1721633875616" class="icon" viewBox="0 0 1024 1024" version="1.1" xmlns="http://www.w3.org/2000/svg" p-id="19982" xmlns:xlink="http://www.w3.org/1999/xlink" width="200" height="200"><path d="M904.533333 260.266667l-371.2-213.333334c-12.8-8.533333-29.866667-8.533333-42.666666 0l-371.2 213.333334c-12.8 8.533333-21.333333 21.333333-21.333334 38.4v426.666666c0 17.066667 8.533333 29.866667 21.333334 38.4l371.2 213.333334c12.8 8.533333 29.866667 8.533333 42.666666 0l371.2-213.333334c12.8-8.533333 21.333333-21.333333 21.333334-38.4V298.666667c0-17.066667-8.533333-29.866667-21.333334-38.4z m-64 439.466666L512 887.466667l-328.533333-187.733334V324.266667L512 136.533333l328.533333 187.733334v375.466666z" fill="#4E5969" p-id="19983"></path><path d="M337.066667 388.266667l-21.333334 34.133333c-4.266667 8.533333-4.266667 21.333333 8.533334 29.866667l145.066666 85.333333v166.4c0 12.8 8.533333 21.333333 21.333334 21.333333h42.666666c12.8 0 21.333333-8.533333 21.333334-21.333333v-166.4l145.066666-85.333333c8.533333-4.266667 12.8-17.066667 8.533334-29.866667l-21.333334-38.4c-4.266667-8.533333-17.066667-12.8-29.866666-8.533333l-145.066667 85.333333-145.066667-85.333333c-8.533333-4.266667-21.333333 0-29.866666 12.8z" fill="#4E5969" p-id="19984"></path></svg>